<?xml version="1.0" standalone="no"?>
<!DOCTYPE svg PUBLIC "-//W3C//DTD SVG 20010904//EN"
 "http://www.w3.org/TR/2001/REC-SVG-20010904/DTD/svg10.dtd">
<svg version="1.0" xmlns="http://www.w3.org/2000/svg"
 width="400.000000pt" height="400.000000pt" viewBox="0 0 400.000000 400.000000"
 preserveAspectRatio="xMidYMid meet">
<metadata>
Created by potrace 1.11, written by Peter Selinger 2001-2013
</metadata>
<g transform="translate(0.000000,400.000000) scale(0.100000,-0.100000)"
fill="#000000" stroke="none">
<path d="M1089 3776 c-2 -2 -24 -7 -49 -11 -86 -12 -100 -15 -189 -45 -449
-151 -760 -542 -837 -1055 -9 -64 -11 -316 -2 -375 7 -42 11 -63 22 -115 59
-271 280 -568 558 -747 122 -79 359 -185 451 -202 12 -2 42 -9 67 -16 25 -7
56 -14 70 -16 74 -13 139 -24 175 -29 122 -18 160 -24 225 -35 30 -5 73 -12
95 -15 22 -4 51 -8 65 -11 14 -2 43 -6 65 -9 22 -3 50 -7 62 -9 11 -3 43 -8
70 -12 26 -3 51 -8 55 -11 16 -9 -121 -200 -257 -358 -79 -91 -90 -110 -103
-170 -11 -54 -6 -134 9 -150 5 -5 9 -15 9 -23 0 -27 61 -91 112 -116 87 -44
152 -32 273 49 33 22 62 43 65 46 3 3 67 48 143 100 75 52 188 129 250 172 61
43 135 93 162 112 28 19 70 49 95 66 25 17 88 61 140 97 52 36 129 89 171 118
42 29 98 68 125 86 27 17 51 36 52 40 2 4 10 8 17 8 7 0 15 4 17 8 2 5 24 23
50 40 25 18 52 38 60 45 7 7 45 38 83 68 227 181 389 402 468 639 52 157 65
246 62 430 -2 142 -12 209 -51 353 -136 496 -526 916 -949 1022 -38 9 -78 20
-89 23 -23 7 -1810 14 -1817 8z"/>
</g>
</svg>
